<?xml version="1.0" encoding="UTF-8"?>
<svg version="1.1" xmlns="http://www.w3.org/2000/svg" width="1563" height="1563">
<path d="M0 0 C1.13767755 28.69475599 -6.55650195 59.14106764 -26.1875 80.75 C-41.29093667 94.80700919 -61.92731292 102.00359567 -82 105 C-79.69505781 107.30494219 -77.29430754 108.2698156 -74.33813477 109.56176758 C-54.81321904 118.14803832 -40.71579874 133.02220912 -32.46484375 152.65234375 C-24.28903257 174.60546939 -23.16449422 201.69655626 -32.90625 223.3671875 C-42.92494193 244.48303749 -58.22970818 260.30601315 -80.4375 268.3125 C-102.18025469 275.76200766 -126.14203218 274.82808215 -147 265 C-166.33844735 255.19597093 -181.00834462 239.75214506 -188.2331543 219.17919922 C-195.69915065 196.01160764 -195.05608316 169.65805121 -184.25 147.6875 C-173.98960907 127.83300841 -159.35535754 115.59065089 -139 107 C-137.66126545 106.34424698 -136.32592041 105.6812909 -135 105 C-135.76183594 104.78085937 -136.52367187 104.56171875 -137.30859375 104.3359375 C-144.39632592 102.1591808 -150.18722225 99.62098966 -156 95 C-156.92232422 94.28263672 -156.92232422 94.28263672 -157.86328125 93.55078125 C-167.65692055 84.92977282 -171.55111937 71.51671874 -173 59 C-173.19110664 54.98241717 -173.20194685 51.01649847 -173 47 C-156.90947044 46.00811804 -141.2489185 49.65428678 -128.75 60.1875 C-118.83674703 69.61907453 -113.42598638 82.8561962 -112.90234375 96.5546875 C-112.91394531 97.32039062 -112.92554688 98.08609375 -112.9375 98.875 C-112.94652344 99.65617188 -112.95554687 100.43734375 -112.96484375 101.2421875 C-112.97644531 101.82226562 -112.98804688 102.40234375 -113 103 C-110.69 103 -108.38 103 -106 103 C-106.05220703 101.47246094 -106.05220703 101.47246094 -106.10546875 99.9140625 C-106.69096124 75.04103381 -100.96974935 48.0446532 -84 29 C-83.14535156 28.00613281 -83.14535156 28.00613281 -82.2734375 26.9921875 C-73.92992266 17.93858629 -62.41879588 11.38808013 -51 7 C-50.07703125 6.64292969 -49.1540625 6.28585937 -48.203125 5.91796875 C-32.86232735 0.61227837 -16.12556463 -0.62376826 0 0 Z M-136.9375 150.375 C-148.75056177 163.48146269 -149.62210652 178.61421162 -149.13623047 195.51123047 C-148.53084912 206.57083166 -144.24655805 217.80762761 -136.0234375 225.40234375 C-127.01807361 232.51275655 -117.28212073 236.9104459 -105.6953125 235.63671875 C-94.16462603 233.58037094 -85.26818384 228.61901025 -77.72265625 219.6015625 C-68.77220839 206.08455961 -67.70953354 187.30427522 -70.68359375 171.69140625 C-73.66262485 160.40569921 -79.40028711 151.73741318 -89 145 C-105.05784016 136.37158722 -123.20973456 137.36191215 -136.9375 150.375 Z " fill="#139D80" transform="translate(1082,621)"/>
<path d="M0 0 C1.69962891 -0.01836914 1.69962891 -0.01836914 3.43359375 -0.03710938 C5.10228516 -0.04000977 5.10228516 -0.04000977 6.8046875 -0.04296875 C7.80226074 -0.04707764 8.79983398 -0.05118652 9.82763672 -0.05541992 C12.48060408 0.14002673 14.53922921 0.51616707 17.07641602 1.17602539 C23.70720903 2.73139606 30.44709453 2.54562372 37.22265625 2.6015625 C38.66712002 2.6203063 40.11157321 2.63988201 41.55601501 2.6602478 C45.32878334 2.71123635 49.10158704 2.7510384 52.87451172 2.78839111 C56.73608916 2.82864135 60.59752372 2.87963698 64.45898438 2.9296875 C72.01423158 3.02605196 79.56953587 3.10958576 87.125 3.1875 C87.125 12.0975 87.125 21.0075 87.125 30.1875 C73.76 31.1775 73.76 31.1775 60.125 32.1875 C62.105 37.1375 62.105 37.1375 64.125 42.1875 C68.29649182 57.45673421 66.31811965 73.16186564 59.125 87.1875 C57.00891786 90.71767045 54.69727686 93.97635699 52.125 97.1875 C51.62613281 97.81269531 51.12726563 98.43789063 50.61328125 99.08203125 C40.81218912 110.0187663 24.34696048 116.57012163 9.91210938 117.36425781 C6.43928879 117.41930252 2.97303269 117.41141701 -0.5 117.375 C-2.2634375 117.3740332 -2.2634375 117.3740332 -4.0625 117.37304688 C-8.93880568 117.3483914 -13.57696518 117.31833712 -18.3671875 116.3671875 C-22.00060946 115.81957179 -22.00060946 115.81957179 -24.84375 118.27734375 C-26.09671875 119.68693359 -26.09671875 119.68693359 -27.375 121.125 C-28.2309375 122.06214844 -29.086875 122.99929688 -29.96875 123.96484375 C-30.5978125 124.69832031 -31.226875 125.43179688 -31.875 126.1875 C-20.05085767 131.15363978 -7.58920964 132.59393813 5.05535889 133.83633423 C49.0564323 138.24524631 49.0564323 138.24524631 64.1875 154.68359375 C72.76230078 165.76514072 75.10107097 178.24552987 73.66015625 191.9921875 C71.08086257 207.39264174 63.19746623 219.61658377 50.75 228.97265625 C28.03656007 243.57949015 -2.88029802 244.22326728 -28.640625 239.1640625 C-45.17930012 235.52314177 -62.0447352 228.82456844 -71.8125 214.1875 C-77.68580707 203.5823413 -79.70608503 190.49560378 -76.71875 178.64453125 C-73.11298498 168.14440997 -67.26173445 158.44532297 -57.875 152.1875 C-58.67164063 151.75179687 -59.46828125 151.31609375 -60.2890625 150.8671875 C-74.71630641 142.75844457 -74.71630641 142.75844457 -76.54296875 137.12890625 C-77.00944602 133.22807462 -76.5221606 131.02199656 -74.09375 127.890625 C-71.75703651 125.5699164 -69.32625519 123.38612986 -66.875 121.1875 C-65.72619078 119.91696265 -64.59946383 118.62597138 -63.5 117.3125 C-58.93105497 111.97666349 -53.87915215 107.11021025 -48.875 102.1875 C-49.42027344 101.47787109 -49.42027344 101.47787109 -49.9765625 100.75390625 C-61.94890308 85.00567364 -68.2434632 71.20045102 -66.40625 50.88671875 C-64.16349492 35.26988741 -57.03423374 21.97292586 -44.484375 12.35546875 C-30.7610622 2.92582717 -16.41998615 0.00927683 0 0 Z M-23.875 42.1875 C-29.53918061 49.44927002 -29.44538356 56.21203038 -28.875 65.1875 C-27.71355307 71.68734064 -24.15259166 76.31530053 -18.875 80.1875 C-8.79962945 85.37450824 0.52380148 86.37080958 11.41015625 83.16015625 C18.39021779 80.659386 23.76364471 76.92376443 27.125 70.1875 C29.96708424 62.55650381 29.79813682 54.40095617 26.5 46.9375 C22.50801959 39.89115736 16.66589135 36.36056237 9.0859375 33.87890625 C-2.93816484 31.07116731 -14.88687871 33.61453443 -23.875 42.1875 Z M-33.484375 170.859375 C-37.56285304 175.89749493 -39.11313844 181.91637191 -38.75390625 188.359375 C-37.73743414 193.76658746 -35.0319723 197.65277719 -30.875 201.1875 C-18.33875255 209.55255481 -3.13707192 210.71317069 11.3125 208 C20.25232284 205.88838622 26.79669263 202.7763014 32.125 195.1875 C34.96245804 190.40809372 34.85059895 185.59583034 34.125 180.1875 C31.95810568 174.57961471 28.51026521 170.8801326 23.125 168.1875 C15.04322078 165.45711005 6.89251231 164.36007074 -1.5625 163.5 C-2.73361328 163.37044922 -3.90472656 163.24089844 -5.11132812 163.10742188 C-17.79391551 161.75547094 -24.25121269 161.26764328 -33.484375 170.859375 Z " fill="#139D80" transform="translate(690.875,723.8125)"/>
<path d="M0 0 C13.29754043 11.64650353 21.31616609 26.07004707 22.7179718 43.89697266 C23.05465161 51.58521935 22.95972912 59.27561517 22.890625 66.96875 C22.88314929 69.43452492 22.87746266 71.90030584 22.87347412 74.36608887 C22.85832262 80.80390303 22.8191326 87.24134667 22.7746582 93.67901611 C22.73347761 100.2690327 22.71541475 106.85911012 22.6953125 113.44921875 C22.65262695 126.34133343 22.58236436 139.2330777 22.5 152.125 C10.62 152.125 -1.26 152.125 -13.5 152.125 C-14.82874982 146.81000074 -15.87566501 142.04943032 -16.5625 136.6875 C-16.75538456 132.58262288 -16.75538456 132.58262288 -18.5 129.125 C-18.90089844 129.681875 -19.30179688 130.23875 -19.71484375 130.8125 C-29.89045621 144.47227909 -41.57204986 152.71811619 -58.57446289 155.45947266 C-77.64046367 157.90204694 -97.62470209 155.57409961 -113.5 144.125 C-114.13164062 143.68671875 -114.76328125 143.2484375 -115.4140625 142.796875 C-125.72817882 134.89090038 -129.37547518 123.39160162 -131.5 111.125 C-133.14211453 97.80147982 -128.41935929 86.11613505 -120.625 75.59375 C-110.10782276 63.37526468 -93.16621219 57.56010007 -77.5 56.125 C-73.0426042 55.9894815 -68.5879989 56.00867137 -64.12890625 56.02734375 C-62.85144028 56.0287587 -61.5739743 56.03017365 -60.25779724 56.03163147 C-56.88275254 56.03626484 -53.50777703 56.04522977 -50.13275146 56.05633545 C-46.68030389 56.06661574 -43.22784913 56.07114319 -39.77539062 56.07617188 C-33.01690815 56.08717534 -26.25845807 56.10389433 -19.5 56.125 C-19.94453097 53.38767454 -20.39901648 50.65263787 -20.859375 47.91796875 C-21.0457251 46.76065247 -21.0457251 46.76065247 -21.23583984 45.57995605 C-22.66829033 37.1721924 -25.92182059 31.72504353 -32.609375 26.375 C-41.18743194 20.7035574 -52.178566 19.949337 -62.0625 21.875 C-70.67772215 24.02504672 -76.35691637 27.90428769 -81.6875 35.0625 C-83.8493135 38.46945389 -83.8493135 38.46945389 -85.5 44.125 C-99.36 44.125 -113.22 44.125 -127.5 44.125 C-124.40917105 24.03461181 -117.4515396 11.60496532 -101.5 -0.875 C-98.84979442 -2.60049356 -96.1169444 -4.1035479 -93.3125 -5.5625 C-92.5714502 -5.95115234 -91.83040039 -6.33980469 -91.06689453 -6.74023438 C-85.06451965 -9.7874941 -79.16435612 -11.79948432 -72.5 -12.875 C-71.52289063 -13.05546875 -70.54578125 -13.2359375 -69.5390625 -13.421875 C-46.13088114 -16.65058967 -19.33936604 -14.83770657 0 0 Z M-82.5 91.125 C-85.75121939 96.01252388 -87.25725311 100.17515413 -86.5 106.125 C-84.67970121 112.22835478 -81.74632856 115.73031681 -76.5 119.125 C-68.07521512 123.66142263 -56.59642452 123.63032811 -47.5625 121 C-35.46790607 116.12131764 -28.63775914 106.36828398 -23.6640625 94.78515625 C-22.31834409 90.55382018 -21.82419997 86.53549649 -21.5 82.125 C-26.26480746 82.09998284 -31.02957534 82.08199243 -35.79443359 82.07006836 C-37.41000028 82.06508898 -39.02556258 82.05830306 -40.64111328 82.04956055 C-63.27606126 80.98191601 -63.27606126 80.98191601 -82.5 91.125 Z " fill="#139D80" transform="translate(581.5,737.875)"/>
<path d="M0 0 C0 14.52 0 29.04 0 44 C-6.27 44.33 -12.54 44.66 -19 45 C-30.95422068 46.90865708 -42.82576859 49.83316313 -50.60546875 59.80859375 C-58.76182411 72.62572361 -58.31967164 87.60978434 -58.4140625 102.23046875 C-58.43280404 104.07563616 -58.4523796 105.92079527 -58.4727478 107.76594543 C-58.52375984 112.58756585 -58.56354973 117.40921396 -58.60089111 122.23095703 C-58.64112623 127.16510697 -58.69212891 132.0991448 -58.7421875 137.03320312 C-58.83857986 146.68872297 -58.92310036 156.34430659 -59 166 C-64.96313166 166.02464574 -70.92623395 166.042834 -76.8894043 166.05493164 C-78.91968298 166.05997278 -80.94995802 166.06680557 -82.98022461 166.07543945 C-85.89177347 166.08751467 -88.8032745 166.09323034 -91.71484375 166.09765625 C-93.08514992 166.10539818 -93.08514992 166.10539818 -94.48313904 166.11329651 C-96.65575427 166.11349168 -98.82827296 166.06211805 -101 166 C-102.83393423 164.16606577 -102.1262014 161.23298385 -102.12698364 158.77429199 C-102.12854363 158.1166912 -102.13010362 157.45909041 -102.13171089 156.78156233 C-102.13572266 154.56203487 -102.13253058 152.34257493 -102.12939453 150.12304688 C-102.13074849 148.53833475 -102.1325284 146.95362295 -102.13470459 145.36891174 C-102.13927952 141.05291796 -102.13748912 136.73694797 -102.1343255 132.42095375 C-102.13180221 127.91438353 -102.13413936 123.40781541 -102.13571167 118.90124512 C-102.13753346 111.33178337 -102.13512682 103.76233136 -102.13037109 96.19287109 C-102.12492846 87.42861574 -102.12669111 78.66438364 -102.1321975 69.90012884 C-102.13672838 62.38932518 -102.1373793 54.87852853 -102.13475883 47.36772394 C-102.13319591 42.87571487 -102.13300268 38.38371675 -102.13629532 33.89170837 C-102.13917366 29.66961002 -102.13719902 25.44754179 -102.13140106 21.2254467 C-102.13007327 19.67136116 -102.13046791 18.11727311 -102.13266373 16.56318855 C-102.13537448 14.45066023 -102.13199506 12.33822999 -102.12698364 10.22570801 C-102.12660662 9.04065926 -102.12622959 7.8556105 -102.12584114 6.63465118 C-102 4 -102 4 -101 3 C-98.27275721 2.89900512 -95.57137477 2.86029471 -92.84375 2.8671875 C-92.02628296 2.86623077 -91.20881592 2.86527405 -90.36657715 2.86428833 C-88.63484622 2.86360655 -86.90311276 2.86546071 -85.17138672 2.86962891 C-82.51133518 2.87497721 -79.8514525 2.86968388 -77.19140625 2.86328125 C-75.51302046 2.86394203 -73.83463477 2.8652232 -72.15625 2.8671875 C-71.35521851 2.86516327 -70.55418701 2.86313904 -69.72888184 2.86105347 C-64.11495079 2.88504921 -64.11495079 2.88504921 -63 4 C-62.71433759 5.66723653 -62.48520731 7.3442466 -62.28125 9.0234375 C-62.15363281 10.044375 -62.02601563 11.0653125 -61.89453125 12.1171875 C-61.69923828 13.72980469 -61.69923828 13.72980469 -61.5 15.375 C-61.24233814 17.48731702 -60.98203802 19.59931437 -60.71875 21.7109375 C-60.60466797 22.65243652 -60.49058594 23.59393555 -60.37304688 24.56396484 C-60.05010684 27.13131192 -60.05010684 27.13131192 -59 30 C-58.443125 29.28714844 -57.88625 28.57429687 -57.3125 27.83984375 C-41.83068226 8.40911642 -24.9842976 0 0 0 Z " fill="#139C80" transform="translate(888,724)"/>
</svg>
